<?xml version="1.0" encoding="utf-8"?>
<!-- Generator: Adobe Illustrator 17.1.0, SVG Export Plug-In . SVG Version: 6.00 Build 0)  -->
<!DOCTYPE svg PUBLIC "-//W3C//DTD SVG 1.1//EN" "http://www.w3.org/Graphics/SVG/1.1/DTD/svg11.dtd">
<svg version="1.1" id="Layer_1" xmlns="http://www.w3.org/2000/svg" xmlns:xlink="http://www.w3.org/1999/xlink" x="0px" y="0px"
	 viewBox="0 0 75 87" enable-background="new 0 0 75 87" xml:space="preserve">
<g>
	<path fill="#E7A793" d="M46.15,65.78l1.52,13.02c0.34,2.87-1.71,5.47-4.56,5.8l-20.69,2.37c-2.86,0.33-5.44-1.74-5.78-4.61
		l-1.52-13.02L46.15,65.78z"/>
	<path fill="#E7A793" d="M72.76,40.87c0,0-4.78-5.24-16.4,2.17c-1.58,1.26-3.73,2.92-5.73,4.52L45.61,4.65
		c-0.34-2.87-2.85-4.94-5.72-4.62c-2.87,0.33-4.92,2.92-4.59,5.8l3.35,28.67l-25.88,2.97l-2.43-20.83C10,13.77,7.49,11.7,4.62,12.03
		c-2.87,0.33-4.92,2.92-4.59,5.79l5.78,49.49c0.43,3.66,7.89,9.6,11.56,9.18l25.87-2.97c2.76-0.32,6.86-3.98,8.53-7.33
		c1.32-1.82,7.35-9.57,19.95-17.91C74,46.55,74.46,43.23,72.76,40.87z"/>
	<path fill="#BA8777" d="M14.39,38.12l20.69-2.37l2.46,20.73c0.34,2.95-1.7,5.61-4.57,5.94c-2.87,0.33-5.47-1.8-5.81-4.75
		c0.34,2.95-1.7,5.61-4.57,5.94c-2.87,0.33-5.47-1.8-5.81-4.75L14.39,38.12z"/>
	<path fill="#E7A793" d="M32.29,27.84c-2.86,0.33-4.89,3-4.55,5.96c-0.35-2.97-2.94-5.1-5.8-4.78c-2.86,0.33-4.89,3-4.55,5.96
		l2.09,17.9c0.35,2.96,2.94,5.1,5.8,4.77c2.86-0.33,4.89-3,4.55-5.96c0.35,2.96,2.94,5.1,5.8,4.77c2.86-0.33,4.89-3,4.55-5.96
		l-2.09-17.9C37.75,29.65,35.15,27.51,32.29,27.84z"/>
	<path fill="#EAC3B6" d="M34.01,43.87c-2.86,0.33-4.9,2.92-4.56,5.8c-0.34-2.87-2.92-4.94-5.78-4.61c-2.86,0.33-4.9,2.92-4.56,5.8
		l0.3,2.61c0.34,2.88,2.92,4.94,5.78,4.61c2.86-0.33,4.9-2.92,4.56-5.8c0.34,2.88,2.92,4.94,5.78,4.61c2.86-0.33,4.9-2.92,4.56-5.8
		l-0.3-2.61C39.45,45.61,36.86,43.54,34.01,43.87z"/>
</g>
</svg>
