<?xml version="1.0" encoding="utf-8"?>
<!-- Generator: Adobe Illustrator 17.1.0, SVG Export Plug-In . SVG Version: 6.00 Build 0)  -->
<!DOCTYPE svg PUBLIC "-//W3C//DTD SVG 1.1//EN" "http://www.w3.org/Graphics/SVG/1.1/DTD/svg11.dtd">
<svg version="1.1" id="Layer_1" xmlns="http://www.w3.org/2000/svg" xmlns:xlink="http://www.w3.org/1999/xlink" x="0px" y="0px"
	 viewBox="0 0 45 23" enable-background="new 0 0 45 23" xml:space="preserve">
<path fill-rule="evenodd" clip-rule="evenodd" fill="#BFBFBF" d="M5,0h35c2.8,0,5,2.2,5,5v13c0,2.8-2.2,5-5,5H5c-2.8,0-5-2.2-5-5V5
	C0,2.2,2.2,0,5,0z"/>
<g>
	<g>
		<path fill="#FFFFFF" d="M13.4,10.5c-0.3-0.4-0.6-0.6-1-0.8c-0.4-0.2-0.8-0.3-1.2-0.3c-0.5,0-1,0.1-1.4,0.3
			c-0.4,0.2-0.7,0.4-1.1,0.7V5.9H6.3v12H8c0.2,0,0.3,0,0.4-0.1c0.1-0.1,0.2-0.2,0.2-0.4L8.6,17c0.1,0.1,0.3,0.3,0.4,0.4
			c0.1,0.1,0.3,0.2,0.4,0.3c0.2,0.1,0.3,0.2,0.5,0.2c0.2,0,0.4,0.1,0.7,0.1c0.5,0,1-0.1,1.4-0.3c0.4-0.2,0.8-0.5,1.1-0.9
			c0.3-0.4,0.6-0.8,0.7-1.4c0.2-0.5,0.3-1.1,0.3-1.7c0-0.7-0.1-1.3-0.2-1.8C13.9,11.3,13.6,10.9,13.4,10.5z M11.6,14.8
			c-0.1,0.3-0.2,0.6-0.3,0.8c-0.1,0.2-0.3,0.3-0.5,0.4c-0.2,0.1-0.4,0.1-0.6,0.1c-0.2,0-0.5,0-0.7-0.1c-0.2-0.1-0.4-0.2-0.6-0.4
			v-3.5c0.1-0.1,0.2-0.2,0.3-0.3c0.1-0.1,0.2-0.2,0.3-0.2c0.1-0.1,0.3-0.1,0.4-0.1c0.1,0,0.3-0.1,0.5-0.1c0.2,0,0.4,0,0.5,0.1
			c0.2,0.1,0.3,0.2,0.4,0.4c0.1,0.2,0.2,0.4,0.3,0.7c0.1,0.3,0.1,0.7,0.1,1.1C11.7,14.1,11.6,14.5,11.6,14.8z M21.4,10.4
			c-0.3-0.3-0.7-0.6-1.2-0.7c-0.5-0.2-1-0.3-1.5-0.3c-0.6,0-1.2,0.1-1.7,0.3c-0.5,0.2-0.9,0.5-1.3,0.9c-0.4,0.4-0.6,0.8-0.8,1.3
			c-0.2,0.5-0.3,1-0.3,1.6c0,0.7,0.1,1.4,0.3,1.9c0.2,0.6,0.5,1,0.9,1.4c0.4,0.4,0.8,0.7,1.3,0.8c0.5,0.2,1.1,0.3,1.6,0.3
			c0.3,0,0.6,0,0.9-0.1c0.3,0,0.6-0.1,0.9-0.2c0.3-0.1,0.6-0.2,0.9-0.4c0.3-0.2,0.6-0.4,0.8-0.7l-0.7-0.9c-0.1-0.1-0.3-0.2-0.4-0.2
			c-0.1,0-0.3,0-0.4,0.1c-0.1,0.1-0.3,0.1-0.4,0.2c-0.2,0.1-0.3,0.2-0.6,0.2c-0.2,0.1-0.5,0.1-0.7,0.1c-0.5,0-1-0.2-1.3-0.5
			c-0.3-0.3-0.6-0.8-0.6-1.5h4.8c0.1,0,0.2,0,0.3,0c0.1,0,0.1-0.1,0.2-0.1c0-0.1,0.1-0.2,0.1-0.3c0-0.1,0-0.3,0-0.5
			c0-0.6-0.1-1.1-0.3-1.6S21.8,10.8,21.4,10.4z M17.1,12.7c0.1-0.5,0.3-0.9,0.5-1.2c0.3-0.3,0.6-0.4,1.1-0.4c0.3,0,0.5,0,0.7,0.1
			c0.2,0.1,0.3,0.2,0.5,0.4c0.1,0.1,0.2,0.3,0.2,0.5c0.1,0.2,0.1,0.4,0.1,0.6H17.1z M28.4,15.9c0,0-0.1-0.1-0.2-0.1
			c-0.1,0-0.1,0-0.1,0c0,0-0.1,0-0.1,0.1c0,0-0.1,0-0.2,0.1c-0.1,0-0.1,0-0.2,0c-0.2,0-0.3-0.1-0.4-0.2c-0.1-0.1-0.1-0.3-0.1-0.5
			v-4.1h2V9.6h-2V7.1h-1.3c-0.3,0-0.5,0.1-0.5,0.4l-0.5,2l-1.3,0.3v1c0,0.2,0,0.3,0.1,0.4c0.1,0.1,0.2,0.1,0.3,0.1h0.7v4.3
			c0,0.4,0.1,0.7,0.2,1c0.1,0.3,0.3,0.6,0.5,0.8c0.2,0.2,0.5,0.4,0.8,0.5c0.3,0.1,0.6,0.2,1,0.2c0.4,0,0.8-0.1,1.2-0.2
			c0.4-0.1,0.8-0.3,1.1-0.5l-0.8-1.2C28.5,16,28.4,16,28.4,15.9z M36.9,11.4c-0.1-0.4-0.4-0.7-0.6-1c-0.3-0.3-0.6-0.5-1-0.7
			c-0.4-0.2-0.9-0.2-1.4-0.2c-0.7,0-1.4,0.1-2,0.3c-0.6,0.2-1.2,0.5-1.7,1l0.4,0.8c0.1,0.1,0.2,0.2,0.3,0.3c0.1,0.1,0.3,0.1,0.4,0.1
			c0.2,0,0.4,0,0.5-0.1c0.1-0.1,0.3-0.1,0.4-0.2c0.1-0.1,0.3-0.2,0.5-0.2c0.2-0.1,0.4-0.1,0.7-0.1c0.4,0,0.7,0.1,0.9,0.3
			s0.3,0.6,0.3,1.1V13c-0.9,0-1.7,0.1-2.4,0.3c-0.6,0.2-1.1,0.4-1.5,0.6c-0.4,0.3-0.6,0.5-0.8,0.8c-0.1,0.3-0.2,0.6-0.2,0.9
			c0,0.4,0.1,0.7,0.2,1c0.1,0.3,0.3,0.5,0.5,0.7c0.2,0.2,0.5,0.3,0.8,0.4c0.3,0.1,0.7,0.1,1,0.1c0.3,0,0.5,0,0.8-0.1
			c0.2,0,0.5-0.1,0.7-0.2c0.2-0.1,0.4-0.2,0.6-0.3c0.2-0.1,0.4-0.3,0.6-0.5l0.2,0.5c0.1,0.2,0.2,0.3,0.3,0.4
			c0.1,0.1,0.3,0.1,0.5,0.1h1.1v-5.2C37.1,12.2,37,11.8,36.9,11.4z M34.7,15.6c-0.2,0.3-0.5,0.4-0.7,0.5c-0.2,0.1-0.5,0.2-0.8,0.2
			c-0.3,0-0.5-0.1-0.7-0.2c-0.2-0.1-0.2-0.3-0.2-0.6c0-0.1,0-0.3,0.1-0.4c0.1-0.1,0.2-0.2,0.4-0.3c0.2-0.1,0.4-0.2,0.8-0.2
			c0.3-0.1,0.7-0.1,1.2-0.1V15.6z"/>
	</g>
</g>
</svg>
